<svg width="26" height="15" viewBox="0 0 26 15" fill="none" xmlns="http://www.w3.org/2000/svg">
<path d="M26 8C25.5726 8 25.059 8.12952 24.5029 8.35254C23.9526 8.57329 23.391 8.87334 22.875 9.18555C21.5142 10.0094 20.3213 11.0907 19.3203 12.334L19.0293 12.7061C18.7427 13.0825 18.4752 13.4689 18.2646 13.8359C17.9734 14.3435 17.833 14.7421 17.833 15H16.833C16.833 14.4651 17.0907 13.8725 17.3975 13.3379C17.7147 12.7851 18.132 12.2159 18.542 11.707C19.6079 10.3832 20.8855 9.22054 22.3564 8.33008C22.5413 8.21822 22.7355 8.10857 22.9336 8H0V7H22.9336C22.7357 6.89157 22.5422 6.78163 22.3574 6.66992C20.8865 5.7806 19.6089 4.61791 18.543 3.29199C18.1329 2.78373 17.7148 2.21562 17.3975 1.66309C17.0906 1.12864 16.833 0.535938 16.833 0L17.833 0C17.833 0.259062 17.9735 0.658059 18.2646 1.16504C18.5453 1.65374 18.9267 2.17708 19.3203 2.66504H19.3213C20.3222 3.91017 21.5135 4.99182 22.874 5.81445C23.3909 6.12692 23.9534 6.42663 24.5039 6.64746C25.0598 6.87046 25.5726 7 26 7V8Z" fill="#1A0F04"/>
</svg>
