<svg width="22" height="13" viewBox="0 0 22 13" fill="none" xmlns="http://www.w3.org/2000/svg">
<path d="M11.5 12.2222C11.5 11.6148 11.6979 10.8977 12.0293 10.1348C12.3582 9.37792 12.8041 8.60834 13.2656 7.90429C14.4872 6.04157 16.0905 4.4103 17.9326 3.04118C18.6537 2.50481 19.4332 1.98079 20.166 1.59265C20.9158 1.19558 21.5496 0.977724 22 0.977724V-5.427e-05C21.2876 -5.427e-05 20.4682 0.319894 19.6895 0.732324C19.0927 1.0484 18.4797 1.44118 17.8975 1.85047L17.3271 2.26297C15.4042 3.69222 13.7165 5.40515 12.4238 7.37625C11.9441 8.108 11.4676 8.92847 11.1094 9.7529C11.0714 9.84036 11.0345 9.92824 10.999 10.0164C10.9637 9.92857 10.9285 9.84003 10.8906 9.7529C10.5325 8.9288 10.0557 8.10848 9.57617 7.37625C8.28511 5.40522 6.59694 3.69314 4.6709 2.26392C3.92984 1.71209 3.10674 1.15382 2.31152 0.732324C1.53315 0.319786 0.713847 -5.427e-05 0 -5.427e-05L0 0.977724C0.452055 0.977724 1.086 1.19568 1.83496 1.59265C2.56712 1.98073 3.3451 2.50478 4.06543 3.04118H4.06641C5.91144 4.41019 7.51446 6.04178 8.73438 7.90429C9.19598 8.60918 9.64184 9.37908 9.9707 10.1358C10.3021 10.8984 10.5 11.6149 10.5 12.2222H11.5Z" fill="#1A0F04"/>
</svg>
