<svg width="22" height="22" viewBox="0 0 22 22" fill="none" xmlns="http://www.w3.org/2000/svg">
<path d="M6.44426 0.0774197C5.27386 0.13264 4.4746 0.31942 3.77588 0.59398C3.05274 0.8758 2.43982 1.25398 1.82998 1.86602C1.22014 2.47806 0.844598 3.09142 0.564758 3.81566C0.293938 4.51592 0.110458 5.31584 0.0587578 6.4869C0.00705784 7.65796 -0.00438216 8.03438 0.00133784 11.0215C0.00705784 14.0087 0.0202578 14.3831 0.0770178 15.5566C0.132898 16.7268 0.319018 17.5258 0.593578 18.2248C0.875838 18.9479 1.25358 19.5606 1.86584 20.1707C2.4781 20.7807 3.09102 21.1554 3.81702 21.4357C4.51662 21.7061 5.31676 21.8904 6.4876 21.9417C7.65844 21.9929 8.0353 22.0048 11.0216 21.9991C14.0079 21.9934 14.3838 21.9802 15.5571 21.9245C16.7304 21.8689 17.5252 21.6814 18.2244 21.4082C18.9475 21.1253 19.5607 20.7482 20.1703 20.1357C20.7799 19.5232 21.1552 18.9094 21.4348 18.1847C21.7059 17.4851 21.89 16.685 21.9408 15.515C21.9921 14.3409 22.0042 13.966 21.9985 10.9793C21.9928 7.99258 21.9793 7.61814 21.9237 6.4451C21.868 5.27206 21.6817 4.47544 21.4073 3.77606C21.1246 3.05292 20.7473 2.44066 20.1353 1.83016C19.5233 1.21966 18.909 0.84456 18.1846 0.5656C17.4845 0.29478 16.6848 0.1102 15.514 0.0595997C14.3431 0.00899966 13.9663 -0.00398035 10.9789 0.00173965C7.99152 0.00745965 7.61752 0.0202197 6.44426 0.0774197ZM6.57274 19.9628C5.50024 19.9161 4.9179 19.7379 4.52982 19.5888C4.0159 19.3908 3.64982 19.1514 3.26306 18.7684C2.8763 18.3854 2.6387 18.018 2.43806 17.5052C2.28736 17.1171 2.10586 16.5354 2.0557 15.4629C2.00114 14.3037 1.9897 13.9557 1.98332 11.0189C1.97694 8.08212 1.98816 7.73452 2.03898 6.5749C2.08474 5.50328 2.26404 4.92028 2.41298 4.53242C2.61098 4.01784 2.84946 3.65242 3.23336 3.26588C3.61726 2.87934 3.98356 2.6413 4.49682 2.44066C4.88446 2.2893 5.46614 2.10934 6.5382 2.0583C7.69826 2.0033 8.04586 1.9923 10.9822 1.98592C13.9185 1.97954 14.267 1.99054 15.4275 2.04158C16.4991 2.08822 17.0824 2.26576 17.4698 2.41558C17.9839 2.61358 18.3498 2.8514 18.7363 3.23596C19.1229 3.62052 19.3611 3.9855 19.5618 4.49986C19.7133 4.8864 19.8933 5.46786 19.9439 6.54058C19.9991 7.70064 20.0117 8.04846 20.0169 10.9846C20.0222 13.9207 20.0119 14.2694 19.9611 15.4286C19.9142 16.5011 19.7364 17.0836 19.5871 17.4722C19.3891 17.9859 19.1504 18.3522 18.7662 18.7385C18.3821 19.1248 18.0163 19.3628 17.5028 19.5635C17.1156 19.7146 16.5332 19.895 15.4621 19.9461C14.302 20.0006 13.9544 20.0121 11.017 20.0184C8.07952 20.0248 7.73302 20.0129 6.57296 19.9628M15.5402 5.12136C15.5406 5.38245 15.6184 5.63755 15.7639 5.85439C15.9093 6.07123 16.1158 6.24007 16.3572 6.33956C16.5985 6.43905 16.864 6.46473 17.12 6.41333C17.376 6.36193 17.611 6.23578 17.7952 6.05083C17.9795 5.86587 18.1048 5.63042 18.1553 5.37425C18.2057 5.11808 18.1791 4.8527 18.0787 4.61168C17.9783 4.37066 17.8087 4.16481 17.5914 4.02018C17.374 3.87556 17.1186 3.79864 16.8575 3.79916C16.5075 3.79986 16.1721 3.93954 15.9251 4.18749C15.678 4.43544 15.5396 4.77135 15.5402 5.12136ZM5.35196 11.0114C5.35812 14.131 7.89164 16.6542 11.0106 16.6483C14.1295 16.6423 16.6545 14.109 16.6485 10.9894C16.6426 7.86982 14.1084 5.34598 10.989 5.35214C7.86964 5.3583 5.34602 7.89226 5.35196 11.0114ZM7.33328 11.0075C7.33184 10.2822 7.54549 9.5729 7.9472 8.96911C8.34892 8.36532 8.92065 7.89422 9.59011 7.61536C10.2596 7.33651 10.9967 7.26244 11.7082 7.40251C12.4198 7.54259 13.0738 7.89052 13.5876 8.4023C14.1015 8.91409 14.452 9.56674 14.5949 10.2777C14.7378 10.9887 14.6666 11.7261 14.3904 12.3967C14.1142 13.0673 13.6454 13.6408 13.0432 14.0449C12.441 14.449 11.7325 14.6655 11.0073 14.6669C10.5257 14.668 10.0487 14.5741 9.60346 14.3907C9.1582 14.2074 8.75342 13.9381 8.41224 13.5982C8.07107 13.2584 7.80018 12.8547 7.61505 12.4102C7.42992 11.9656 7.33417 11.489 7.33328 11.0075Z" fill="#1A0F04"/>
</svg>
