<svg width="25" height="24" viewBox="0 0 25 24" fill="none" xmlns="http://www.w3.org/2000/svg">
<path d="M24.9988 10.2204C24.9988 4.58489 19.3917 0 12.4994 0C5.6071 0 0 4.58489 0 10.2204C0 15.2727 4.44726 19.5035 10.4539 20.3038C10.8604 20.3923 11.4145 20.5741 11.5551 20.9247C11.6817 21.2435 11.6371 21.7416 11.5961 22.0639C11.5961 22.0639 11.4497 22.9528 11.4181 23.1416C11.363 23.4604 11.1673 24.387 12.5006 23.8204C13.835 23.2538 19.6987 19.5495 22.3206 16.5087C24.1319 14.5066 25 12.4762 25 10.2204H24.9988ZM8.08965 13.2341C8.08965 13.3675 7.98304 13.4749 7.85065 13.4749H4.33947C4.20709 13.4749 4.10047 13.3675 4.10047 13.2341V13.2305V7.73788C4.10047 7.60449 4.20709 7.49707 4.33947 7.49707H5.22635C5.35756 7.49707 5.46535 7.60567 5.46535 7.73788V12.1008H7.85182C7.98304 12.1008 8.09082 12.2094 8.09082 12.3417V13.2353L8.08965 13.2341ZM10.2031 13.2341C10.2031 13.3663 10.0965 13.4749 9.96415 13.4749H9.07728C8.94606 13.4749 8.83828 13.3675 8.83828 13.2341V7.73788C8.83828 7.60567 8.94489 7.49707 9.07728 7.49707H9.96415C10.0965 7.49707 10.2031 7.60449 10.2031 7.73788V13.2341ZM16.2379 13.2341C16.2379 13.3663 16.1313 13.4749 15.9989 13.4749H15.1179C15.0968 13.4749 15.0757 13.4713 15.0558 13.4666C15.0558 13.4666 15.0534 13.4666 15.0523 13.4666C15.0464 13.4654 15.0417 13.4631 15.0358 13.4619C15.0335 13.4619 15.0312 13.4595 15.0288 13.4595C15.0253 13.4584 15.0206 13.456 15.0171 13.4548C15.0136 13.4525 15.0089 13.4513 15.0054 13.4489C15.003 13.4477 15.0007 13.4466 14.9984 13.4454C14.9937 13.443 14.9878 13.4395 14.9831 13.4359C14.9831 13.4359 14.9808 13.4348 14.9808 13.4336C14.9574 13.417 14.9363 13.397 14.9187 13.3734L12.4197 9.97248V13.2364C12.4197 13.3686 12.3131 13.4772 12.1807 13.4772H11.2939C11.1627 13.4772 11.0549 13.3698 11.0549 13.2364V7.74024C11.0549 7.60803 11.1615 7.49943 11.2939 7.49943H12.1749C12.1749 7.49943 12.1807 7.49943 12.1831 7.49943C12.1878 7.49943 12.1913 7.49943 12.196 7.49943C12.2007 7.49943 12.2042 7.49943 12.2089 7.50061C12.2124 7.50061 12.2159 7.50061 12.2194 7.50179C12.2241 7.50179 12.2288 7.50415 12.2335 7.50533C12.2358 7.50533 12.2393 7.50651 12.2417 7.50769C12.2464 7.50887 12.251 7.51123 12.2557 7.51241C12.2581 7.51241 12.2604 7.51477 12.2639 7.51477C12.2686 7.51713 12.2733 7.51831 12.278 7.52068C12.2803 7.52186 12.2827 7.52304 12.285 7.52422C12.2897 7.52658 12.2944 7.52894 12.2979 7.5313C12.3002 7.53248 12.3026 7.53366 12.3049 7.53602C12.3096 7.53838 12.3131 7.54192 12.3178 7.54428C12.3202 7.54546 12.3225 7.54783 12.3249 7.54901C12.3295 7.55255 12.3331 7.55609 12.3377 7.55963C12.3389 7.56081 12.3413 7.56199 12.3424 7.56317C12.3471 7.56789 12.3518 7.57261 12.3565 7.57852C12.3565 7.57852 12.3565 7.57852 12.3577 7.5797C12.3647 7.58796 12.3705 7.59622 12.3764 7.60449L14.8718 11.0007V7.7367C14.8718 7.60449 14.9784 7.49589 15.1108 7.49589H15.9977C16.1289 7.49589 16.2367 7.60331 16.2367 7.7367V13.2329L16.2379 13.2341ZM21.0788 8.6303C21.0788 8.76369 20.9722 8.87111 20.8398 8.87111H18.4533V9.79895H20.8398C20.971 9.79895 21.0788 9.90755 21.0788 10.0398V10.9334C21.0788 11.0668 20.9722 11.1742 20.8398 11.1742H18.4533V12.102H20.8398C20.971 12.102 21.0788 12.2106 21.0788 12.3428V13.2364C21.0788 13.3698 20.9722 13.4772 20.8398 13.4772H17.3286C17.1962 13.4772 17.0896 13.3698 17.0896 13.2364V13.2329V7.74614V7.74024C17.0896 7.60685 17.1962 7.49943 17.3286 7.49943H20.8398C20.971 7.49943 21.0788 7.60803 21.0788 7.74024V8.63384V8.6303Z" fill="#1A0F04"/>
</svg>
