<svg width="115" height="45" viewBox="0 0 115 45" fill="none" xmlns="http://www.w3.org/2000/svg">
<path d="M92.204 23.052V22.712L92.884 22.44C93.3373 22.2813 93.632 22.066 93.768 21.794C93.9266 21.522 94.006 21.1707 94.006 20.74V2.958C94.006 2.50467 93.9266 2.142 93.768 1.87C93.632 1.598 93.3373 1.38267 92.884 1.224L92.204 0.952V0.612H100.84V0.952L100.262 1.19C99.8313 1.34867 99.5366 1.564 99.378 1.836C99.2193 2.08533 99.14 2.43667 99.14 2.89V11.152H107.266V2.89C107.266 2.43667 107.187 2.08533 107.028 1.836C106.892 1.564 106.597 1.34867 106.144 1.19L105.532 0.952V0.612H114.202V0.952L113.522 1.224C113.091 1.38267 112.797 1.598 112.638 1.87C112.479 2.142 112.4 2.50467 112.4 2.958V20.74C112.4 21.1707 112.479 21.522 112.638 21.794C112.797 22.066 113.091 22.2813 113.522 22.44L114.202 22.712V23.052H105.532V22.712L106.144 22.508C106.597 22.3267 106.892 22.1113 107.028 21.862C107.187 21.59 107.266 21.2273 107.266 20.774V11.832H99.14V20.774C99.14 21.6127 99.514 22.1907 100.262 22.508L100.84 22.712V23.052H92.204Z" fill="#1A0F04"/>
<path d="M81.3736 23.664C79.175 23.664 77.1803 23.222 75.3896 22.338C73.6216 21.4313 72.2163 20.094 71.1736 18.326C70.131 16.558 69.6096 14.3933 69.6096 11.832C69.6096 9.88267 69.927 8.17133 70.5616 6.698C71.1963 5.22467 72.0576 3.98933 73.1456 2.992C74.2563 1.99467 75.5256 1.24667 76.9536 0.748001C78.4043 0.249334 79.9343 0 81.5436 0C82.8356 0 84.0256 0.147333 85.1136 0.442C86.2016 0.736667 87.2216 1.14467 88.1736 1.666L88.3096 5.848H87.9696L86.2696 3.128C86.043 2.69733 85.7936 2.312 85.5216 1.972C85.2496 1.60933 84.9096 1.33733 84.5016 1.156C84.1616 0.997333 83.8216 0.884 83.4816 0.816C83.1643 0.725333 82.7563 0.679999 82.2576 0.679999C80.943 0.679999 79.7416 1.03133 78.6536 1.734C77.5883 2.43667 76.727 3.604 76.0696 5.236C75.435 6.84533 75.1176 9.05533 75.1176 11.866C75.1176 14.654 75.4236 16.864 76.0356 18.496C76.6476 20.1053 77.475 21.2613 78.5176 21.964C79.583 22.644 80.773 22.984 82.0876 22.984C82.813 22.984 83.391 22.9387 83.8216 22.848C84.2523 22.7347 84.683 22.576 85.1136 22.372C85.5443 22.1907 85.873 21.93 86.0996 21.59C86.3263 21.2273 86.5303 20.842 86.7116 20.434L88.2076 17.102H88.5476L88.4456 21.964C87.4936 22.4627 86.4283 22.8707 85.2496 23.188C84.071 23.5053 82.779 23.664 81.3736 23.664Z" fill="#1A0F04"/>
<path d="M57.9755 23.052V22.712L58.6555 22.44C59.1089 22.2813 59.4035 22.066 59.5395 21.794C59.6982 21.522 59.7775 21.1593 59.7775 20.706V2.958C59.7775 2.50467 59.7095 2.142 59.5735 1.87C59.4375 1.598 59.1315 1.38267 58.6555 1.224L57.9755 0.952V0.612H66.7135V0.952L66.0335 1.224C65.5802 1.38267 65.2742 1.598 65.1155 1.87C64.9795 2.142 64.9115 2.50467 64.9115 2.958V20.706C64.9115 21.1593 64.9795 21.522 65.1155 21.794C65.2742 22.0433 65.5802 22.2587 66.0335 22.44L66.7135 22.712V23.052H57.9755Z" fill="#1A0F04"/>
<path d="M34.5859 23.052V22.712L35.2999 22.474C35.7532 22.3153 36.0479 22.1113 36.1839 21.862C36.3199 21.59 36.3879 21.216 36.3879 20.74V2.958C36.3879 2.50467 36.3199 2.15333 36.1839 1.904C36.0706 1.632 35.7986 1.41667 35.3679 1.258L34.5859 0.952V0.612H44.3099C46.9846 0.612 49.0359 1.122 50.4639 2.142C51.8919 3.13933 52.6059 4.53333 52.6059 6.324C52.6059 7.32133 52.2319 8.31867 51.4839 9.316C50.7359 10.3133 49.5572 11.084 47.9479 11.628L52.6739 21.012C52.8779 21.3973 53.1046 21.7147 53.3539 21.964C53.6259 22.1907 53.9772 22.3947 54.4079 22.576L54.8499 22.746V23.052H48.7639L43.7319 12.342H41.4199V20.74C41.4199 21.1707 41.4879 21.522 41.6239 21.794C41.7599 22.066 42.0432 22.27 42.4739 22.406L43.2899 22.712V23.052H34.5859ZM41.4199 11.662H43.0519C44.6839 11.662 45.8626 11.2313 46.5879 10.37C47.3132 9.486 47.6759 8.18267 47.6759 6.46C47.6759 4.71467 47.3359 3.42267 46.6559 2.584C45.9759 1.72267 44.8312 1.292 43.2219 1.292H41.4199V11.662Z" fill="#1A0F04"/>
<path d="M21.8689 12.892V11.974H30.4369V12.892H21.8689Z" fill="#1A0F04"/>
<path d="M0 23.052V22.712L0.714 22.44C1.16733 22.2813 1.462 22.066 1.598 21.794C1.734 21.522 1.802 21.1707 1.802 20.74V2.958C1.802 2.50467 1.734 2.142 1.598 1.87C1.462 1.598 1.16733 1.38266 0.714 1.224L0 0.951998V0.611999H8.466V0.951998L7.718 1.258C7.33267 1.394 7.072 1.598 6.936 1.87C6.8 2.142 6.732 2.516 6.732 2.992V20.774C6.732 21.2273 6.8 21.5787 6.936 21.828C7.09467 22.0773 7.38933 22.2813 7.82 22.44L8.466 22.712V23.052H0ZM12.546 23.052V22.712L12.988 22.576C13.4413 22.44 13.6793 22.2133 13.702 21.896C13.7247 21.5787 13.5887 21.216 13.294 20.808L6.766 11.526L15.368 2.754C15.6853 2.43667 15.8553 2.13067 15.878 1.836C15.9233 1.54133 15.708 1.31467 15.232 1.156L14.654 0.951998V0.611999H19.618V0.951998L18.734 1.224C18.2353 1.38266 17.8387 1.57533 17.544 1.802C17.2493 2.02867 16.9093 2.33467 16.524 2.72L10.438 8.942L18.428 20.604C18.768 21.1027 19.0853 21.5107 19.38 21.828C19.6973 22.1453 20.1393 22.3947 20.706 22.576L21.182 22.712V23.052H12.546Z" fill="#1A0F04"/>
<path d="M78.479 44.552C77.663 44.552 76.919 44.378 76.247 44.03C75.587 43.67 75.059 43.154 74.663 42.482C74.279 41.798 74.087 40.964 74.087 39.98C74.087 39.008 74.297 38.18 74.717 37.496C75.149 36.8 75.719 36.272 76.427 35.912C77.147 35.54 77.933 35.354 78.785 35.354C79.481 35.354 80.069 35.468 80.549 35.696C81.029 35.924 81.395 36.224 81.647 36.596C81.899 36.956 82.025 37.334 82.025 37.73C82.025 38.066 81.923 38.33 81.719 38.522C81.515 38.702 81.251 38.792 80.927 38.792C80.579 38.792 80.297 38.666 80.081 38.414C79.865 38.162 79.739 37.832 79.703 37.424C79.691 37.16 79.697 36.938 79.721 36.758C79.745 36.566 79.745 36.374 79.721 36.182C79.673 35.978 79.595 35.846 79.487 35.786C79.391 35.714 79.253 35.678 79.073 35.678C78.341 35.678 77.771 35.996 77.363 36.632C76.967 37.268 76.769 38.282 76.769 39.674C76.769 40.886 76.991 41.816 77.435 42.464C77.891 43.1 78.587 43.418 79.523 43.418C80.087 43.418 80.543 43.316 80.891 43.112C81.239 42.908 81.575 42.602 81.899 42.194L82.079 42.338C81.779 43.046 81.317 43.592 80.693 43.976C80.069 44.36 79.331 44.552 78.479 44.552Z" fill="#1A0F04"/>
<path d="M70.0501 34.418C69.6421 34.418 69.2941 34.292 69.0061 34.04C68.7301 33.776 68.5921 33.446 68.5921 33.05C68.5921 32.642 68.7301 32.312 69.0061 32.06C69.2941 31.808 69.6421 31.682 70.0501 31.682C70.4581 31.682 70.8001 31.808 71.0761 32.06C71.3521 32.312 71.4901 32.642 71.4901 33.05C71.4901 33.446 71.3521 33.776 71.0761 34.04C70.8001 34.292 70.4581 34.418 70.0501 34.418ZM67.9261 44.282V44.102L68.1781 44.03C68.4181 43.958 68.5801 43.85 68.6641 43.706C68.7601 43.562 68.8081 43.37 68.8081 43.13V37.496C68.8081 37.244 68.7601 37.058 68.6641 36.938C68.5801 36.806 68.4181 36.716 68.1781 36.668L67.9261 36.614V36.434L71.2201 35.372L71.4001 35.552L71.3461 38.108V43.148C71.3461 43.388 71.3881 43.58 71.4721 43.724C71.5681 43.868 71.7301 43.976 71.9581 44.048L72.1381 44.102V44.282H67.9261Z" fill="#1A0F04"/>
<path d="M56.4039 44.282V44.102L56.6559 44.03C57.0759 43.91 57.2859 43.616 57.2859 43.148V37.514C57.2859 37.25 57.2439 37.058 57.1599 36.938C57.0759 36.806 56.9139 36.716 56.6739 36.668L56.4039 36.596V36.416L59.4819 35.372L59.6619 35.552L59.8059 36.632C60.2259 36.26 60.6999 35.954 61.2279 35.714C61.7559 35.474 62.2779 35.354 62.7939 35.354C63.5859 35.354 64.1919 35.57 64.6119 36.002C65.0439 36.434 65.2599 37.094 65.2599 37.982V43.166C65.2599 43.634 65.4879 43.928 65.9439 44.048L66.1059 44.102V44.282H61.8579V44.102L62.0919 44.03C62.5119 43.898 62.7219 43.604 62.7219 43.148V37.406C62.7219 36.638 62.3379 36.254 61.5699 36.254C61.0419 36.254 60.4659 36.518 59.8419 37.046V43.166C59.8419 43.634 60.0519 43.928 60.4719 44.048L60.6339 44.102V44.282H56.4039Z" fill="#1A0F04"/>
<path d="M52.4389 34.418C52.0309 34.418 51.6829 34.292 51.3949 34.04C51.1189 33.776 50.9809 33.446 50.9809 33.05C50.9809 32.642 51.1189 32.312 51.3949 32.06C51.6829 31.808 52.0309 31.682 52.4389 31.682C52.8469 31.682 53.1889 31.808 53.4649 32.06C53.7409 32.312 53.8789 32.642 53.8789 33.05C53.8789 33.446 53.7409 33.776 53.4649 34.04C53.1889 34.292 52.8469 34.418 52.4389 34.418ZM50.3149 44.282V44.102L50.5669 44.03C50.8069 43.958 50.9689 43.85 51.0529 43.706C51.1489 43.562 51.1969 43.37 51.1969 43.13V37.496C51.1969 37.244 51.1489 37.058 51.0529 36.938C50.9689 36.806 50.8069 36.716 50.5669 36.668L50.3149 36.614V36.434L53.6089 35.372L53.7889 35.552L53.7349 38.108V43.148C53.7349 43.388 53.7769 43.58 53.8609 43.724C53.9569 43.868 54.1189 43.976 54.3469 44.048L54.5269 44.102V44.282H50.3149Z" fill="#1A0F04"/>
<path d="M44.1025 44.282V44.102L44.3185 44.03C44.7505 43.886 44.9665 43.586 44.9665 43.13V33.5C44.9665 33.26 44.9185 33.08 44.8225 32.96C44.7265 32.828 44.5585 32.732 44.3185 32.672L44.0845 32.618V32.438L47.3785 31.664L47.5945 31.826L47.5225 34.346V40.502C47.5225 40.946 47.5225 41.39 47.5225 41.834C47.5345 42.266 47.5405 42.698 47.5405 43.13C47.5405 43.37 47.5885 43.568 47.6845 43.724C47.7805 43.868 47.9425 43.976 48.1705 44.048L48.4045 44.102V44.282H44.1025Z" fill="#1A0F04"/>
<path d="M38.3508 44.606C37.1868 44.606 36.1308 44.372 35.1828 43.904C34.2468 43.424 33.5028 42.716 32.9508 41.78C32.3988 40.844 32.1228 39.698 32.1228 38.342C32.1228 37.31 32.2908 36.404 32.6268 35.624C32.9628 34.844 33.4188 34.19 33.9948 33.662C34.5828 33.134 35.2548 32.738 36.0108 32.474C36.7788 32.21 37.5888 32.078 38.4408 32.078C39.1248 32.078 39.7548 32.156 40.3308 32.312C40.9068 32.468 41.4468 32.684 41.9508 32.96L42.0228 35.174H41.8428L40.9428 33.734C40.8228 33.506 40.6908 33.302 40.5468 33.122C40.4028 32.93 40.2228 32.786 40.0068 32.69C39.8268 32.606 39.6468 32.546 39.4668 32.51C39.2988 32.462 39.0828 32.438 38.8188 32.438C38.1228 32.438 37.4868 32.624 36.9108 32.996C36.3468 33.368 35.8908 33.986 35.5428 34.85C35.2068 35.702 35.0388 36.872 35.0388 38.36C35.0388 39.836 35.2008 41.006 35.5248 41.87C35.8488 42.722 36.2868 43.334 36.8388 43.706C37.4028 44.066 38.0328 44.246 38.7288 44.246C39.1128 44.246 39.4188 44.222 39.6468 44.174C39.8748 44.114 40.1028 44.03 40.3308 43.922C40.5588 43.826 40.7328 43.688 40.8528 43.508C40.9728 43.316 41.0808 43.112 41.1768 42.896L41.9688 41.132H42.1488L42.0948 43.706C41.5908 43.97 41.0268 44.186 40.4028 44.354C39.7788 44.522 39.0948 44.606 38.3508 44.606Z" fill="#1A0F04"/>
</svg>
