<svg width="7" height="12" viewBox="0 0 7 12" fill="none" xmlns="http://www.w3.org/2000/svg">
<path d="M3 12C3 11.8524 2.95339 11.6526 2.85547 11.4111C2.75982 11.1753 2.62741 10.9298 2.48633 10.6992C2.12013 10.1009 1.63766 9.57373 1.0791 9.12891C0.856667 8.95163 0.62446 8.78402 0.413086 8.66406C0.183578 8.53383 0.0479679 8.5 0 8.5V7.5C0.322032 7.5 0.649383 7.64916 0.90625 7.79492C1.18118 7.95095 1.45916 8.15302 1.70215 8.34668C2.18577 8.73183 2.62629 9.17637 3 9.67676V0H4V9.67676C4.37367 9.17622 4.81426 8.73093 5.29883 8.3457C5.54132 8.15227 5.81921 7.95083 6.09375 7.79492C6.35066 7.64905 6.67765 7.5 7 7.5V8.5C6.95147 8.5 6.81596 8.53398 6.58691 8.66406C6.37579 8.78396 6.14318 8.95156 5.9209 9.12891C5.36155 9.57362 4.87928 10.1012 4.51367 10.6992C4.37257 10.9301 4.24015 11.1754 4.14453 11.4111C4.04661 11.6525 4 11.8525 4 12H3Z" fill="#1A0F04"/>
</svg>
