<svg width="26" height="26" viewBox="0 0 26 26" fill="none" xmlns="http://www.w3.org/2000/svg">
<path d="M13.5752 0.0219375C14.993 0 16.4027 0.013 17.8108 0C17.8961 1.65831 18.4925 3.3475 19.7064 4.51994C20.9178 5.72163 22.6314 6.27169 24.2986 6.45775V10.8201C22.7362 10.7689 21.1664 10.4439 19.7486 9.77112C19.1311 9.49162 18.5559 9.13169 17.9928 8.76363C17.9855 11.9291 18.0058 15.0906 17.9725 18.2431C17.888 19.7576 17.3883 21.2647 16.5075 22.5128C15.0905 24.5903 12.6311 25.9447 10.105 25.987C8.55561 26.0756 7.00779 25.6531 5.68748 24.8747C3.49942 23.5844 1.95973 21.2225 1.73548 18.6875C1.70948 18.1456 1.70054 17.6044 1.72248 17.0755C1.91748 15.0142 2.93717 13.0422 4.51992 11.7008C6.31392 10.1384 8.82698 9.39412 11.18 9.8345C11.2019 11.4392 11.1377 13.0423 11.1377 14.6469C10.0628 14.2992 8.80667 14.3967 7.86742 15.0491C7.18167 15.4936 6.66086 16.1744 6.38948 16.9447C6.16523 17.4939 6.22942 18.1041 6.24242 18.6875C6.49998 20.4653 8.20948 21.9594 10.0344 21.7977C11.2442 21.7847 12.4036 21.0828 13.0341 20.0549C13.238 19.695 13.4664 19.3269 13.4785 18.9036C13.585 16.9658 13.5427 15.0361 13.5557 13.0983C13.5647 8.73112 13.5427 4.37612 13.576 0.02275L13.5752 0.0219375Z" fill="#1A0F04"/>
</svg>
