<svg width="26" height="26" viewBox="0 0 26 26" fill="none" xmlns="http://www.w3.org/2000/svg">
<path d="M25.4564 6.67873C25.158 5.55304 24.276 4.66668 23.1577 4.36532C21.1309 3.81873 13 3.81873 13 3.81873C13 3.81873 4.86909 3.81873 2.84227 4.36532C1.72398 4.66668 0.842045 5.55304 0.543636 6.67873C0 8.72032 0 12.9778 0 12.9778C0 12.9778 0 17.2353 0.543636 19.2769C0.842045 20.4026 1.72398 21.289 2.84227 21.5903C4.87057 22.1369 13 22.1369 13 22.1369C13 22.1369 21.1309 22.1369 23.1577 21.5903C24.276 21.289 25.158 20.4026 25.4564 19.2769C26 17.2368 26 12.9778 26 12.9778C26 12.9778 26 8.72032 25.4564 6.67873ZM10.3409 16.8438V9.11179L17.1364 12.9778L10.3409 16.8438Z" fill="#1A0F04"/>
</svg>
